<svg width="205" height="56" viewBox="0 0 205 56" fill="none" xmlns="http://www.w3.org/2000/svg">
<g clip-path="url(#clip0_2119_22297)">
<path d="M51.8646 0H26.1477C23.8215 0 21.9692 1.85231 21.9692 4.13539V25.4154H51.8216C54.1046 25.4154 55.9569 23.5631 55.9569 21.28V4.13539C56 1.85231 54.1477 0 51.8646 0Z" fill="#92C83E"/>
<path d="M31.0584 14.7323C32.1766 14.7323 33.083 13.8259 33.083 12.7077C33.083 11.5896 32.1766 10.6831 31.0584 10.6831C29.9403 10.6831 29.0338 11.5896 29.0338 12.7077C29.0338 13.8259 29.9403 14.7323 31.0584 14.7323Z" fill="white"/>
<path d="M38.9846 14.7323C40.1027 14.7323 41.0092 13.8259 41.0092 12.7077C41.0092 11.5896 40.1027 10.6831 38.9846 10.6831C37.8664 10.6831 36.96 11.5896 36.96 12.7077C36.96 13.8259 37.8664 14.7323 38.9846 14.7323Z" fill="white"/>
<path d="M46.9107 14.7323C48.0289 14.7323 48.9353 13.8259 48.9353 12.7077C48.9353 11.5896 48.0289 10.6831 46.9107 10.6831C45.7926 10.6831 44.8861 11.5896 44.8861 12.7077C44.8861 13.8259 45.7926 14.7323 46.9107 14.7323Z" fill="white"/>
<path d="M4.26466 30.3263C1.98158 30.3263 0.129272 32.1786 0.129272 34.4617V51.8217C0.129272 54.1047 1.98158 55.957 4.26466 55.957H29.9816C32.2646 55.957 34.117 54.1047 34.117 51.8217V30.2832H4.26466V30.3263Z" fill="#FBB03B"/>
<path d="M9.17537 45.1879C10.2935 45.1879 11.2 44.2814 11.2 43.1633C11.2 42.0451 10.2935 41.1387 9.17537 41.1387C8.05721 41.1387 7.15076 42.0451 7.15076 43.1633C7.15076 44.2814 8.05721 45.1879 9.17537 45.1879Z" fill="white"/>
<path d="M17.1015 45.1879C18.2197 45.1879 19.1261 44.2814 19.1261 43.1633C19.1261 42.0451 18.2197 41.1387 17.1015 41.1387C15.9834 41.1387 15.0769 42.0451 15.0769 43.1633C15.0769 44.2814 15.9834 45.1879 17.1015 45.1879Z" fill="white"/>
<path d="M25.0277 45.1879C26.1458 45.1879 27.0523 44.2814 27.0523 43.1633C27.0523 42.0451 26.1458 41.1387 25.0277 41.1387C23.9095 41.1387 23.0031 42.0451 23.0031 43.1633C23.0031 44.2814 23.9095 45.1879 25.0277 45.1879Z" fill="white"/>
<path d="M17.1015 16.8863V25.4586H8.5723C3.83384 25.4586 0 21.6247 0 16.8863C0 12.1478 3.83384 8.31396 8.5723 8.31396C13.3108 8.31396 17.1015 12.1909 17.1015 16.8863Z" fill="#ED1E79"/>
<path d="M38.8984 38.8985V30.3262H47.4707C52.2092 30.3262 56.0431 34.16 56.0431 38.8985C56.0431 43.6369 52.2092 47.4708 47.4707 47.4708C42.7323 47.4708 38.8984 43.5939 38.8984 38.8985Z" fill="#3FA9F5"/>
</g>
<g clip-path="url(#clip1_2119_22297)">
<path d="M76.3354 17.832H70.7578C70.1265 17.832 69.6391 17.9998 69.3035 18.3355C68.9679 18.6711 68.8 19.1585 68.8 19.7898V36.1549C68.8 36.7862 68.9679 37.2736 69.3035 37.6092C69.6391 37.9448 70.1265 38.1126 70.7578 38.1126H76.3354C78.0454 38.1126 79.5556 37.8889 80.8661 37.4334C82.1766 36.9859 83.2953 36.3227 84.2063 35.4597C85.1172 34.5967 85.8044 33.5339 86.2759 32.2794C86.7473 31.0248 86.9791 29.5785 86.9791 27.9484C86.9791 24.6881 86.0521 22.187 84.2063 20.437C82.3524 18.703 79.7314 17.832 76.3354 17.832ZM82.696 31.0807C82.4083 31.9757 81.9689 32.7109 81.3855 33.2942C80.8022 33.8775 80.075 34.317 79.1961 34.6207C78.3251 34.9163 77.2942 35.0681 76.1036 35.0681H72.4758V20.8765H76.1036C78.4449 20.8765 80.1949 21.4598 81.3695 22.6345C82.5362 23.8011 83.1275 25.5751 83.1275 27.9563C83.1275 29.147 82.9837 30.1858 82.696 31.0807Z" fill="black"/>
<path d="M99.3089 19.1503C99.0612 18.591 98.7576 18.1994 98.406 17.9597C98.0544 17.72 97.6548 17.6001 97.2153 17.6001C96.7758 17.6001 96.3443 17.72 95.9927 17.9597C95.6411 18.1994 95.3375 18.5989 95.0898 19.1503L87.4985 35.9789C87.3068 36.4184 87.2428 36.8179 87.2988 37.1695C87.3547 37.5211 87.5225 37.8088 87.8022 38.0165C88.0819 38.2243 88.4494 38.3362 88.9129 38.3362C89.4083 38.3362 89.7919 38.2083 90.0636 37.9606C90.3353 37.7129 90.591 37.3054 90.8387 36.754L92.2531 33.4139H102.146L103.584 36.754C103.816 37.2894 104.079 37.6889 104.375 37.9446C104.671 38.2003 105.086 38.3362 105.63 38.3362C106.069 38.3362 106.429 38.2323 106.692 38.0325C106.964 37.8328 107.124 37.5451 107.18 37.1855C107.236 36.8179 107.164 36.4184 106.948 35.9789L99.3089 19.1503ZM97.1514 21.8272H97.2073L100.875 30.4892H93.5076L97.1514 21.8272Z" fill="black"/>
<path d="M121.707 27.6444C122.554 27.3248 123.249 26.8453 123.793 26.1981C124.504 25.351 124.855 24.3202 124.855 23.0897C124.855 21.9949 124.592 21.06 124.064 20.2689C123.537 19.4858 122.778 18.8785 121.779 18.455C120.78 18.0315 119.573 17.8237 118.151 17.8237H111.247C110.616 17.8237 110.128 17.9915 109.793 18.3271C109.457 18.6628 109.289 19.1502 109.289 19.7815V36.1466C109.289 36.7779 109.457 37.2653 109.793 37.6009C110.128 37.9365 110.616 38.1043 111.247 38.1043H118.471C120.636 38.1043 122.33 37.6089 123.545 36.626C124.759 35.6352 125.375 34.2448 125.375 32.4389C125.375 31.0565 124.983 29.9378 124.192 29.0747C123.569 28.3875 122.73 27.9161 121.707 27.6444ZM112.829 20.6205H117.52C118.782 20.6205 119.733 20.8682 120.357 21.3557C120.98 21.8431 121.291 22.5703 121.291 23.5291C121.291 24.488 120.98 25.2152 120.357 25.7026C119.733 26.1901 118.79 26.4378 117.52 26.4378H112.829V20.6205ZM120.884 34.5564C120.269 35.0678 119.31 35.3155 118.007 35.3155H112.829V29.2186H118.007C119.31 29.2186 120.269 29.4663 120.884 29.9697C121.499 30.4651 121.803 31.2323 121.803 32.2711C121.803 33.3099 121.499 34.053 120.884 34.5564Z" fill="black"/>
<path d="M139.846 23.8169C139.271 23.8169 138.831 23.9687 138.519 24.2644C138.216 24.56 138.056 25.0155 138.056 25.6308V31.9595C138.056 33.0542 137.752 33.9332 137.137 34.5885C136.522 35.2517 135.739 35.5793 134.78 35.5793C133.901 35.5793 133.254 35.3396 132.854 34.8602C132.454 34.3807 132.247 33.6456 132.247 32.6467V25.6308C132.247 25.0155 132.087 24.56 131.775 24.2644C131.456 23.9687 131.016 23.8169 130.441 23.8169C129.865 23.8169 129.426 23.9687 129.114 24.2644C128.811 24.56 128.651 25.0155 128.651 25.6308V32.5908C128.651 33.8773 128.835 34.9481 129.21 35.8111C129.586 36.6741 130.153 37.3213 130.92 37.7528C131.687 38.1843 132.654 38.4001 133.829 38.4001C135.004 38.4001 135.907 38.1204 136.722 37.569C137.305 37.1695 137.776 36.6501 138.144 36.0108V36.5063C138.144 37.0976 138.296 37.553 138.607 37.8727C138.911 38.1923 139.343 38.3441 139.902 38.3441C141.069 38.3441 141.66 37.7288 141.66 36.5063V25.6308C141.66 25.0155 141.5 24.56 141.188 24.2644C140.869 23.9687 140.429 23.8169 139.854 23.8169H139.846Z" fill="black"/>
<path d="M156.755 24.648C155.836 24.0566 154.749 23.753 153.502 23.753C152.336 23.753 151.305 24.0407 150.426 24.616C149.795 25.0235 149.323 25.527 148.988 26.1263V19.414C148.988 18.8227 148.828 18.3672 148.516 18.0636C148.204 17.7599 147.757 17.6001 147.182 17.6001C146.606 17.6001 146.167 17.7519 145.855 18.0636C145.552 18.3672 145.392 18.8227 145.392 19.414V36.4983C145.392 37.0896 145.544 37.5451 145.855 37.8647C146.159 38.1843 146.606 38.3362 147.182 38.3362C147.757 38.3362 148.173 38.1764 148.476 37.8647C148.78 37.5451 148.94 37.0896 148.94 36.4983V35.899C149.267 36.5382 149.747 37.0736 150.394 37.5051C151.289 38.0964 152.328 38.4001 153.518 38.4001C154.709 38.4001 155.828 38.1044 156.755 37.5051C157.682 36.9138 158.409 36.0588 158.928 34.9561C159.448 33.8533 159.703 32.5508 159.703 31.0566C159.703 29.5623 159.448 28.2438 158.928 27.1571C158.409 26.0703 157.69 25.2313 156.771 24.64L156.755 24.648ZM155.62 33.6056C155.324 34.2848 154.909 34.7963 154.365 35.1478C153.822 35.4994 153.207 35.6672 152.496 35.6672C151.425 35.6672 150.562 35.2757 149.907 34.5006C149.251 33.7255 148.932 32.5748 148.932 31.0646C148.932 30.0497 149.083 29.2027 149.379 28.5155C149.675 27.8363 150.09 27.3249 150.634 26.9893C151.169 26.6537 151.792 26.4858 152.504 26.4858C153.574 26.4858 154.437 26.8614 155.093 27.6205C155.748 28.3797 156.067 29.5223 156.067 31.0566C156.067 32.0714 155.916 32.9184 155.62 33.6056Z" fill="black"/>
<path d="M174.015 24.648C173.096 24.0566 172.009 23.753 170.762 23.753C169.596 23.753 168.565 24.0407 167.686 24.616C167.055 25.0235 166.583 25.527 166.248 26.1263V19.414C166.248 18.8227 166.088 18.3672 165.776 18.0636C165.464 17.7599 165.017 17.6001 164.442 17.6001C163.866 17.6001 163.427 17.7519 163.115 18.0636C162.812 18.3672 162.652 18.8227 162.652 19.414V36.4983C162.652 37.0896 162.804 37.5451 163.115 37.8647C163.419 38.1843 163.866 38.3362 164.442 38.3362C165.017 38.3362 165.433 38.1764 165.736 37.8647C166.04 37.5451 166.2 37.0896 166.2 36.4983V35.899C166.527 36.5382 167.007 37.0736 167.654 37.5051C168.549 38.0964 169.588 38.4001 170.778 38.4001C171.969 38.4001 173.088 38.1044 174.015 37.5051C174.942 36.9138 175.669 36.0588 176.188 34.9561C176.708 33.8533 176.963 32.5508 176.963 31.0566C176.963 29.5623 176.708 28.2438 176.188 27.1571C175.669 26.0703 174.95 25.2313 174.031 24.64L174.015 24.648ZM172.88 33.6056C172.584 34.2848 172.169 34.7963 171.625 35.1478C171.082 35.4994 170.467 35.6672 169.756 35.6672C168.685 35.6672 167.822 35.2757 167.167 34.5006C166.511 33.7255 166.192 32.5748 166.192 31.0646C166.192 30.0497 166.343 29.2027 166.639 28.5155C166.935 27.8363 167.35 27.3249 167.894 26.9893C168.429 26.6537 169.052 26.4858 169.764 26.4858C170.834 26.4858 171.697 26.8614 172.353 27.6205C173.008 28.3797 173.327 29.5223 173.327 31.0566C173.327 32.0714 173.176 32.9184 172.88 33.6056Z" fill="black"/>
<path d="M186.504 35.3796C186.368 35.3956 186.233 35.4115 186.105 35.4195C185.969 35.4275 185.825 35.4355 185.673 35.4355C184.986 35.4355 184.451 35.2278 184.075 34.8042C183.7 34.3807 183.516 33.7335 183.516 32.8465V19.414C183.516 18.8227 183.356 18.3672 183.044 18.0636C182.733 17.7599 182.285 17.6001 181.71 17.6001C181.135 17.6001 180.695 17.7519 180.383 18.0636C180.08 18.3672 179.92 18.8227 179.92 19.414V33.0223C179.92 34.7883 180.319 36.1227 181.127 37.0337C181.934 37.9446 183.132 38.4001 184.722 38.4001C184.93 38.4001 185.146 38.3921 185.354 38.3681C185.561 38.3522 185.769 38.3282 185.961 38.3122C186.4 38.2563 186.72 38.0885 186.912 37.8248C187.104 37.5531 187.2 37.1855 187.2 36.7061C187.2 36.1467 187.152 35.7791 187.056 35.5953C186.96 35.4115 186.776 35.3396 186.512 35.3796H186.504Z" fill="black"/>
<path d="M200.456 34.5323C200.152 34.5004 199.793 34.6042 199.393 34.836C198.834 35.1396 198.251 35.3554 197.627 35.4832C197.004 35.6111 196.445 35.667 195.941 35.667C194.503 35.667 193.416 35.2755 192.673 34.5004C192.09 33.8851 191.746 33.0141 191.626 31.8954H200.312C200.752 31.8954 201.095 31.8075 201.335 31.6237C201.575 31.4399 201.695 31.1762 201.695 30.8326C201.695 29.7378 201.543 28.755 201.247 27.884C200.951 27.013 200.52 26.2698 199.953 25.6546C199.385 25.0393 198.706 24.5678 197.907 24.2482C197.108 23.9206 196.213 23.7607 195.214 23.7607C193.856 23.7607 192.641 24.0724 191.578 24.6957C190.515 25.3189 189.676 26.174 189.077 27.2687C188.47 28.3634 188.174 29.634 188.174 31.0963C188.174 32.5586 188.486 33.8851 189.109 34.9798C189.732 36.0745 190.619 36.9136 191.77 37.5129C192.921 38.1042 194.295 38.4078 195.885 38.4078C196.636 38.4078 197.444 38.304 198.314 38.1042C199.185 37.9044 199.961 37.5928 200.632 37.1693C200.975 36.9615 201.223 36.7058 201.367 36.4181C201.511 36.1305 201.567 35.8508 201.527 35.5711C201.487 35.2914 201.375 35.0597 201.199 34.8679C201.015 34.6761 200.776 34.5643 200.464 34.5403L200.456 34.5323ZM193.304 26.7653C193.872 26.3897 194.559 26.2059 195.358 26.2059C196.085 26.2059 196.692 26.3657 197.188 26.6774C197.675 26.997 198.051 27.4525 198.307 28.0438C198.522 28.5392 198.642 29.1385 198.682 29.8257H191.626C191.698 29.2824 191.818 28.779 192.01 28.3475C192.305 27.6682 192.737 27.1408 193.304 26.7653Z" fill="black"/>
</g>
<defs>
<clipPath id="clip0_2119_22297">
<rect width="56" height="56" fill="white"/>
</clipPath>
<clipPath id="clip1_2119_22297">
<rect width="135.292" height="20.8" fill="white" transform="translate(68.8 17.6001)"/>
</clipPath>
</defs>
</svg>
