<svg width="72" height="70" viewBox="0 0 72 70" fill="none" xmlns="http://www.w3.org/2000/svg">
<g clip-path="url(#clip0_20879_992)">
<path d="M66.1543 0H33.7078C30.7729 0 28.4359 2.2998 28.4359 5.13443V31.5553H66.1C68.9805 31.5553 71.3175 29.2556 71.3175 26.4209V5.13443C71.3718 2.2998 69.0348 0 66.1543 0Z" fill="#92C83E"/>
<path d="M39.9037 18.2916C41.3144 18.2916 42.4581 17.1662 42.4581 15.7779C42.4581 14.3896 41.3144 13.2642 39.9037 13.2642C38.4929 13.2642 37.3492 14.3896 37.3492 15.7779C37.3492 17.1662 38.4929 18.2916 39.9037 18.2916Z" fill="white"/>
<path d="M49.9039 18.2916C51.3147 18.2916 52.4583 17.1662 52.4583 15.7779C52.4583 14.3896 51.3147 13.2642 49.9039 13.2642C48.4931 13.2642 47.3495 14.3896 47.3495 15.7779C47.3495 17.1662 48.4931 18.2916 49.9039 18.2916Z" fill="white"/>
<path d="M59.9042 18.2916C61.3149 18.2916 62.4586 17.1662 62.4586 15.7779C62.4586 14.3896 61.3149 13.2642 59.9042 13.2642C58.4934 13.2642 57.3497 14.3896 57.3497 15.7779C57.3497 17.1662 58.4934 18.2916 59.9042 18.2916Z" fill="white"/>
<path d="M6.09839 37.6526C3.21788 37.6526 0.880859 39.9524 0.880859 42.787V64.3409C0.880859 67.1756 3.21788 69.4754 6.09839 69.4754H38.5449C41.4254 69.4754 43.7624 67.1756 43.7624 64.3409V37.5991H6.09839V37.6526Z" fill="#FBB03B"/>
<path d="M12.2942 56.1041C13.7049 56.1041 14.8486 54.9787 14.8486 53.5904C14.8486 52.2021 13.7049 51.0767 12.2942 51.0767C10.8834 51.0767 9.73975 52.2021 9.73975 53.5904C9.73975 54.9787 10.8834 56.1041 12.2942 56.1041Z" fill="white"/>
<path d="M22.2944 56.1041C23.7052 56.1041 24.8488 54.9787 24.8488 53.5904C24.8488 52.2021 23.7052 51.0767 22.2944 51.0767C20.8836 51.0767 19.74 52.2021 19.74 53.5904C19.74 54.9787 20.8836 56.1041 22.2944 56.1041Z" fill="white"/>
<path d="M32.2946 56.1041C33.7054 56.1041 34.8491 54.9787 34.8491 53.5904C34.8491 52.2021 33.7054 51.0767 32.2946 51.0767C30.8839 51.0767 29.7402 52.2021 29.7402 53.5904C29.7402 54.9787 30.8839 56.1041 32.2946 56.1041Z" fill="white"/>
<path d="M22.2944 20.9655V31.6088H11.5333C5.55486 31.6088 0.717773 26.8487 0.717773 20.9655C0.717773 15.0823 5.55486 10.3223 11.5333 10.3223C17.5117 10.3223 22.2944 15.1358 22.2944 20.9655Z" fill="#ED1E79"/>
<path d="M49.7952 48.2956V37.6523H60.6107C66.5891 37.6523 71.4262 42.4124 71.4262 48.2956C71.4262 54.1788 66.5891 58.9388 60.6107 58.9388C54.6322 58.9388 49.7952 54.1253 49.7952 48.2956Z" fill="#3FA9F5"/>
</g>
<defs>
<clipPath id="clip0_20879_992">
<rect width="70.6541" height="69.5287" fill="white" transform="translate(0.717773)"/>
</clipPath>
</defs>
</svg>
